<svg xmlns="http://www.w3.org/2000/svg" xml:space="preserve" id="github" x="0" y="0" version="1.1" viewBox="0 0 32 32">
  <path fill="white" d="M15.945 32.001l-4-7.373H3.36V-.001h25.28v24.629h-8.695l-4 7.373zM4.36 23.628h8.18l3.405 6.275 3.404-6.275h8.291V.999H4.36v22.629z"></path>
  <path fill="white" id="Cat_2_" d="M18.894 20.291h-4.252s.005-1.264 0-2.131c-2.91.627-3.722-1.598-3.722-1.598-.531-1.066-1.064-1.598-1.064-1.598-1.064-.633 0-.532 0-.532 1.064 0 1.595 1.066 1.595 1.066.933 1.587 2.593 1.332 3.191 1.066 0-.532.233-1.339.531-1.598-2.322-.262-4.256-1.598-4.256-4.262s.533-3.197 1.066-3.729c-.108-.262-.553-1.233.016-2.664 0 0 1.044 0 2.108 1.598.527-.528 2.127-.532 2.659-.532.53 0 2.131.004 2.657.532 1.064-1.598 2.111-1.598 2.111-1.598.569 1.431.124 2.401.016 2.664.531.532 1.064 1.066 1.064 3.729s-1.931 4-4.254 4.262c.3.26.531 1.177.531 1.598l.003 3.727z"></path>
</svg>
