<svg xmlns="http://www.w3.org/2000/svg" xml:space="preserve" viewBox="0 0 32 32" id="google">
  <g id="Outline">
    <path fill="white" d="M15.945 32.001l-4-7.373H3.36V-.001h25.28v24.629h-8.695l-4 7.373zM4.36 23.628h8.181l3.404 6.275 3.404-6.275h8.291V.999H4.36v22.629z"></path>
    <path fill="white" d="M22.84 10.957c.089.477.138.976.138 1.498 0 4.076-2.723 6.974-6.835 6.974-3.934 0-7.12-3.193-7.12-7.134s3.186-7.134 7.12-7.134c1.923 0 3.529.709 4.762 1.859l-2.007 2.011v-.005c-.747-.714-1.695-1.079-2.754-1.079-2.35 0-4.259 1.989-4.259 4.343s1.909 4.347 4.259 4.347c2.132 0 3.582-1.222 3.881-2.898h-3.881v-2.782h6.696z"></path>
  </g>
</svg>
