<svg xmlns="http://www.w3.org/2000/svg" xml:space="preserve" viewBox="0 0 32 32" id="linkedin">
  <g id="Outline">
    <path fill="white" d="M15.945 32.001l-4-7.373H3.36V-.001h25.281v24.629h-8.696l-4 7.373zM4.36 23.628h8.181l3.404 6.275 3.404-6.275h8.292V.999H4.36v22.629z"></path>
    <path fill="white" d="M22.431 18.435V13.67c0-2.553-1.36-3.741-3.174-3.741-1.463 0-2.119.807-2.485 1.373v-1.177h-2.757c.037.78 0 8.311 0 8.311h2.757v-4.642c0-.248.018-.496.091-.673.199-.496.653-1.01 1.414-1.01.998 0 1.397.762 1.397 1.879v4.447l2.757-.002zm-11.32-9.446c.961 0 1.56-.639 1.56-1.437-.018-.815-.599-1.435-1.542-1.435s-1.56.62-1.56 1.435c0 .798.599 1.437 1.524 1.437h.018zm1.378 9.446v-8.311H9.732v8.311h2.757z"></path>
  </g>
</svg>
